/* XPM */
static char * closeA_xpm[] = {
"20 40 45 1",
" 	c None",
".	c #262524",
"+	c #2C2B2B",
"@	c #2F2E2E",
"#	c #303030",
"$	c #252424",
"%	c #272625",
"&	c #282726",
"*	c #2E2E2E",
"=	c #2A2929",
"-	c #212121",
";	c #1F1F1F",
">	c #222121",
",	c #2B2A2A",
"'	c #262625",
")	c #2B2B2A",
"!	c #2A2A29",
"~	c #20201F",
"{	c #252423",
"]	c #232222",
"^	c #2A2A2A",
"/	c #222221",
"(	c #272725",
"_	c #232221",
":	c #2A2928",
"<	c #2F2F2F",
"[	c #201F1F",
"}	c #848484",
"|	c #848483",
"1	c #242323",
"2	c #2B2A29",
"3	c #292827",
"4	c #2C2B2A",
"5	c #2C2B29",
"6	c #2A2927",
"7	c #858484",
"8	c #2D2C2B",
"9	c #232322",
"0	c #2F2F2E",
"a	c #2C2C2B",
"b	c #2E2E2D",
"c	c #222222",
"d	c #242322",
"e	c #2D2D2D",
"f	c #FFFFFF",
"....................",
"....+@#########@+...",
"$%&*=-;;;;;;;;;>,@$'",
"%.)!~>{...$$...]~^^.",
".&*/>....$%($.{._/*:",
"'&<[{.}...&%($|.1[<2",
"$'#;$$.}...&{}3&3;#:",
"22#;%&$.}..{}&.&%;#1",
"4&#;&%%$&}$}&%&%%;#$",
"&3#;%&.%.&}{&%%%%;#$",
"13#;{$..&}.}&%%%%;#'",
"25#;6$..}..$7.&&%;#$",
"83#;%3$}..{3.}%%%;#'",
"8:<[.%7&.{.&%(}.%[<5",
"&5@9]%.%&$%%%&.%]904",
"$4a,~].&&..&%&._~^b&",
"''5@^-;;;;;;;;;c^<2d",
"$:2:e<#########<b3d4",
"%'8&53%24&$&d'3:.d8:",
"'$42343:5d%8&$&%$:33",
"....................",
"....+@#########@+...",
"$%&*=-;;;;;;;;;>,@$'",
"%.)!~>{...$$...]~^^.",
".&*/>....$%($.{._/*:",
"'&<[{.f...&%($f.1[<2",
"$'#;$$.f...&{f3&3;#:",
"22#;%&$.f..{f&.&%;#1",
"4&#;&%%$&f$f&%&%%;#$",
"&3#;%&.%.&f{&%%%%;#$",
"13#;{$..&f.f&%%%%;#'",
"25#;6$..f..$f.&&%;#$",
"83#;%3$f..{3.f%%%;#'",
"8:<[.%f&.{.&%(f.%[<5",
"&5@9]%.%&$%%%&.%]904",
"$4a,~].&&..&%&._~^b&",
"''5@^-;;;;;;;;;c^<2d",
"$:2:e<#########<b3d4",
"%'8&53%24&$&d'3:.d8:",
"'$42343:5d%8&$&%$:33"};
