/* XPM */
static char * maximizeA_xpm[] = {
"20 40 43 1",
" 	c None",
".	c #262524",
"+	c #2C2B2B",
"@	c #2F2E2E",
"#	c #303030",
"$	c #252424",
"%	c #272625",
"&	c #2E2E2E",
"*	c #2A2A29",
"=	c #212121",
"-	c #1F1F1F",
";	c #222121",
">	c #2A2A2A",
",	c #2F2F2E",
"'	c #2A2928",
")	c #262625",
"!	c #2B2A2A",
"~	c #20201F",
"{	c #232221",
"]	c #252423",
"^	c #2D2C2C",
"/	c #222221",
"(	c #272725",
"_	c #2F2F2F",
":	c #201F1F",
"<	c #848484",
"[	c #2B2A29",
"}	c #282726",
"|	c #292827",
"1	c #282725",
"2	c #242323",
"3	c #2C2B2A",
"4	c #2C2B29",
"5	c #2A2927",
"6	c #2D2C2B",
"7	c #848483",
"8	c #232222",
"9	c #232322",
"0	c #2E2D2D",
"a	c #2C2C2B",
"b	c #242322",
"c	c #2D2D2D",
"d	c #FFFFFF",
"....................",
"...+@#########@+....",
"$%&*=---------;>,'$)",
"%!*~{]....$$.]{~>^$.",
".&/;.....$%($.]{/&)'",
")_:..<<<<<<<<<]]:_)[",
"$#-.$<.....}]<|1-#]'",
"[#-]%<$%.%.%.<.}-#|2",
"3#-.}<%$}.$$}<}%-#4$",
"}#-]%<.%.}.]}<%%-#[$",
"2#-}]<..}%.]}<%%-#$)",
"[#-}5<..$..$}<}}-#|$",
"6#-%%<$$..]|.<%%-#6)",
"6_:%%<<<<7<<<<%.:_'4",
"}_{8}%.%}$%%%}.89,'3",
"$0>~8%%}}..}%%{~!a6}",
")),>/---------/!@3[b",
"$'[c_#########_03|b3",
"%)6}4|%[3}$}b)|'.b6'",
")$3[|3|'4b%6}$}%$'||",
"....................",
"...+@#########@+....",
"$%&*=---------;>,'$)",
"%!*~{]....$$.]{~>^$.",
".&/;.....$%($.]{/&)'",
")_:..ddddddddd]]:_)[",
"$#-.$d.....}]d|1-#]'",
"[#-]%d$%.%.%.d.}-#|2",
"3#-.}d%$}.$$}d}%-#4$",
"}#-]%d.%.}.]}d%%-#[$",
"2#-}]d..}%.]}d%%-#$)",
"[#-}5d..$..$}d}}-#|$",
"6#-%%d$$..]|.d%%-#6)",
"6_:%%ddddddddd%.:_'4",
"}_{8}%.%}$%%%}.89,'3",
"$0>~8%%}}..}%%{~!a6}",
")),>/---------/!@3[b",
"$'[c_#########_03|b3",
"%)6}4|%[3}$}b)|'.b6'",
")$3[|3|'4b%6}$}%$'||"};
