/* XPM */
static char * restoreA_xpm[] = {
"20 40 43 1",
" 	c None",
".	c #262524",
"+	c #2C2B2B",
"@	c #2F2E2E",
"#	c #303030",
"$	c #252424",
"%	c #272625",
"&	c #2E2E2E",
"*	c #2A2A29",
"=	c #212121",
"-	c #1F1F1F",
";	c #222121",
">	c #2A2A2A",
",	c #2F2F2E",
"'	c #2A2928",
")	c #262625",
"!	c #2B2A2A",
"~	c #20201F",
"{	c #232221",
"]	c #252423",
"^	c #2D2C2C",
"/	c #222221",
"(	c #272725",
"_	c #2F2F2F",
":	c #201F1F",
"<	c #848484",
"[	c #848483",
"}	c #2B2A29",
"|	c #282726",
"1	c #292827",
"2	c #282725",
"3	c #242323",
"4	c #2C2B2A",
"5	c #2C2B29",
"6	c #2A2927",
"7	c #2D2C2B",
"8	c #232222",
"9	c #232322",
"0	c #2E2D2D",
"a	c #2C2C2B",
"b	c #242322",
"c	c #2D2D2D",
"d	c #FFFFFF",
"....................",
"...+@#########@+....",
"$%&*=---------;>,'$)",
"%!*~{]....$$.]{~>^$.",
".&/;.....$%($.]{/&)'",
")_:..<[[[[[[[<]]:_)}",
"$#-.$[.....|][12-#]'",
"}#-]%[$%.%.%.[.|-#13",
"4#-.|[%$|.$$|[|%-#5$",
"|#-]%[[<[<.]|[%%-#}$",
"3#-|][..|[.]|[%%-#$)",
"}#-|6[..$[.$|[||-#1$",
"7#-%%[$$.[]1.[%%-#7)",
"7_:%%[[[[[[[[[%.:_'5",
"|_{8|%.%|$%%%|.89,'4",
"$0>~8%%||..|%%{~!a7|",
")),>/---------/!@4}b",
"$'}c_#########_041b4",
"%)7|51%}4|$|b)1'.b7'",
")$4}141'5b%7|$|%$'11",
"....................",
"...+@#########@+....",
"$%&*=---------;>,'$)",
"%!*~{]....$$.]{~>^$.",
".&/;.....$%($.]{/&)'",
")_:..ddddddddd]]:_)}",
"$#-.$d.....|]d12-#]'",
"}#-]%d$%.%.%.d.|-#13",
"4#-.|d%$|.$$|d|%-#5$",
"|#-]%ddddd.]|d%%-#}$",
"3#-|]d..|d.]|d%%-#$)",
"}#-|6d..$d.$|d||-#1$",
"7#-%%d$$.d]1.d%%-#7)",
"7_:%%ddddddddd%.:_'5",
"|_{8|%.%|$%%%|.89,'4",
"$0>~8%%||..|%%{~!a7|",
")),>/---------/!@4}b",
"$'}c_#########_041b4",
"%)7|51%}4|$|b)1'.b7'",
")$4}141'5b%7|$|%$'11"};
