/* XPM */
static char * rolldownA_xpm[] = {
"20 40 42 1",
" 	c None",
".	c #262524",
"+	c #2C2B2B",
"@	c #2F2E2E",
"#	c #303030",
"$	c #252424",
"%	c #272625",
"&	c #2E2E2E",
"*	c #2A2A29",
"=	c #212121",
"-	c #1F1F1F",
";	c #222121",
">	c #2A2A2A",
",	c #2F2F2E",
"'	c #2A2928",
")	c #262625",
"!	c #2B2A2A",
"~	c #20201F",
"{	c #232221",
"]	c #252423",
"^	c #2D2C2C",
"/	c #222221",
"(	c #272725",
"_	c #2F2F2F",
":	c #201F1F",
"<	c #848483",
"[	c #282726",
"}	c #2B2A29",
"|	c #292827",
"1	c #282725",
"2	c #242323",
"3	c #2C2B2A",
"4	c #2C2B29",
"5	c #2A2927",
"6	c #2D2C2B",
"7	c #232222",
"8	c #232322",
"9	c #2E2D2D",
"0	c #2C2C2B",
"a	c #242322",
"b	c #2D2D2D",
"c	c #FFFFFF",
"....................",
"...+@#########@+....",
"$%&*=---------;>,'$)",
"%!*~{]....$$.]{~>^$.",
".&/;.....$%($.]{/&)'",
")_:......<[%($]]:_)}",
"$#-.$$...<.[].|1-#]'",
"}#-]%[$..<.].[.[-#|2",
"3#-.[%%$[<$$[%[%-#4$",
"[#-]%[.%.<.][%%%-#}$",
"2#-[]$..[<.][%%%-#$)",
"}#-[5$..$<.$[.[[-#|$",
"6#-%%|$$.<]|.%%%-#6)",
"6_:%%%[..<.%%%%.:_'4",
"[_{7[%.%[$%%%[.78,'3",
"$9>~7%%[[..[%%{~!06[",
")),>/---------/!@3}a",
"$'}b_#########_93|a3",
"%)6[4|%}3[$[a)|'.a6'",
")$3}|3|'4a%6[$[%$'||",
"....................",
"...+@#########@+....",
"$%&*=---------;>,'$)",
"%!*~{]....$$.]{~>^$.",
".&/;.....$%($.]{/&)'",
")_:......c[%($]]:_)}",
"$#-.$$...c.[].|1-#]'",
"}#-]%[$..c.].[.[-#|2",
"3#-.[%%$[c$$[%[%-#4$",
"[#-]%[.%.c.][%%%-#}$",
"2#-[]$..[c.][%%%-#$)",
"}#-[5$..$c.$[.[[-#|$",
"6#-%%|$$.c]|.%%%-#6)",
"6_:%%%[..c.%%%%.:_'4",
"[_{7[%.%[$%%%[.78,'3",
"$9>~7%%[[..[%%{~!06[",
")),>/---------/!@3}a",
"$'}b_#########_93|a3",
"%)6[4|%}3[$[a)|'.a6'",
")$3}|3|'4a%6[$[%$'||"};
