/* XPM */
static char * app_16x16_xpm[] = {
"16 16 50 1",
" 	c None",
".	c #001F60",
"+	c #9AAFDA",
"@	c #8CA3D4",
"#	c #93A9D7",
"$	c #486AB3",
"%	c #173F94",
"&	c #6F8BC7",
"*	c #7892CB",
"=	c #3056A5",
"-	c #4B6DB5",
";	c #153D92",
">	c #738FC9",
",	c #3A5EAB",
"'	c #5F7EBF",
")	c #224A9C",
"!	c #1A4296",
"~	c #194195",
"{	c #1B4397",
"]	c #5777BB",
"^	c #385DAA",
"/	c #21489B",
"(	c #3C60AC",
"_	c #5374B9",
":	c #4F71B7",
"<	c #7A94CC",
"[	c #1E4699",
"}	c #6B88C5",
"|	c #4A6CB4",
"1	c #5575BA",
"2	c #718DC8",
"3	c #B3C3E4",
"4	c #98ADD9",
"5	c #3257A6",
"6	c #4164AF",
"7	c #4D6FB6",
"8	c #7691CA",
"9	c #9DB1DB",
"0	c #4467B1",
"a	c #6784C3",
"b	c #7E98CE",
"c	c #7C96CD",
"d	c #95ABD8",
"e	c #3359A7",
"f	c #819ACF",
"g	c #9FB3DC",
"h	c #4266B0",
"i	c #879FD2",
"j	c #8AA1D3",
"k	c #B6C5E5",
"                ",
"       ..       ",
"      .+@.      ",
"     .#$%&.     ",
"    .*=-;;>.    ",
"   .*%,')!%>.   ",
"  .*~{]^/(_:@.  ",
" .<![=}|12>&&3. ",
" .4)5267***829. ",
"  .@>(0abcc*9.  ",
"   .d=e8fbbg.   ",
"    .fh8iig.    ",
"     .f}jk.     ",
"      .4g.      ",
"       ..       ",
"                "};
