/* XPM */
static char * terminal_16x16_xpm[] = {
"16 16 149 2",
"  	c None",
". 	c #C7C7C7",
"+ 	c #DDDDDD",
"@ 	c #DADADA",
"# 	c #D9D9D9",
"$ 	c #E6E6E6",
"% 	c #E5E5E5",
"& 	c #E4E4E4",
"* 	c #E7E7E7",
"= 	c #BEBEBE",
"- 	c #A5A5A5",
"; 	c #FFFFFF",
"> 	c #E3E3E3",
", 	c #EAEAEA",
"' 	c #EDEDED",
") 	c #EBEBEB",
"! 	c #E8E8E8",
"~ 	c #787878",
"{ 	c #B5B5B5",
"] 	c #686969",
"^ 	c #989999",
"/ 	c #878787",
"( 	c #8E8E8E",
"_ 	c #909090",
": 	c #919191",
"< 	c #888888",
"[ 	c #717171",
"} 	c #FDFDFD",
"| 	c #808080",
"1 	c #B4B4B4",
"2 	c #E7E6E6",
"3 	c #949797",
"4 	c #D5DADA",
"5 	c #A5A9A9",
"6 	c #777878",
"7 	c #6D6D6D",
"8 	c #6F6F6F",
"9 	c #6E6E6E",
"0 	c #6C6C6C",
"a 	c #7F7F7F",
"b 	c #F8F8F8",
"c 	c #7C7C7C",
"d 	c #B6B6B6",
"e 	c #EDECEC",
"f 	c #535454",
"g 	c #AEB4B4",
"h 	c #FCFFFF",
"i 	c #898D8D",
"j 	c #4A4A4A",
"k 	c #525252",
"l 	c #4F4F4F",
"m 	c #797979",
"n 	c #B9B9B9",
"o 	c #E4E3E3",
"p 	c #6E7474",
"q 	c #ADB3B3",
"r 	c #696C6C",
"s 	c #343434",
"t 	c #292929",
"u 	c #2B2A2A",
"v 	c #333333",
"w 	c #353535",
"x 	c #2C2C2C",
"y 	c #484848",
"z 	c #BBBBBB",
"A 	c #F1F1F1",
"B 	c #1D1E1E",
"C 	c #030404",
"D 	c #0B0A0A",
"E 	c #424545",
"F 	c #7E8181",
"G 	c #787F7F",
"H 	c #363737",
"I 	c #1B1B1B",
"J 	c #171717",
"K 	c #050505",
"L 	c #373737",
"M 	c #7B7B7B",
"N 	c #F3F3F3",
"O 	c #181818",
"P 	c #030303",
"Q 	c #101010",
"R 	c #272828",
"S 	c #3F4040",
"T 	c #3E4040",
"U 	c #252626",
"V 	c #191919",
"W 	c #141414",
"X 	c #0B0B0B",
"Y 	c #000000",
"Z 	c #383838",
"` 	c #F4F4F4",
" .	c #242424",
"..	c #131313",
"+.	c #212121",
"@.	c #262626",
"#.	c #272727",
"$.	c #292828",
"%.	c #2B2B2B",
"&.	c #282828",
"*.	c #3B3B3B",
"=.	c #E1E1E1",
"-.	c #BFBFBF",
";.	c #F5F5F5",
">.	c #2F2F2F",
",.	c #1F1F1F",
"'.	c #2E2E2E",
").	c #363636",
"!.	c #3C3C3C",
"~.	c #252525",
"{.	c #424242",
"].	c #DEDEDE",
"^.	c #C0C0C0",
"/.	c #1D1D1D",
"(.	c #303030",
"_.	c #3A3A3A",
":.	c #404040",
"<.	c #434343",
"[.	c #313131",
"}.	c #0E0E0E",
"|.	c #C3C3C3",
"1.	c #F9F9F9",
"2.	c #8A8A8A",
"3.	c #929292",
"4.	c #979797",
"5.	c #9A9A9A",
"6.	c #9B9B9B",
"7.	c #999999",
"8.	c #939393",
"9.	c #8C8C8C",
"0.	c #858585",
"a.	c #777777",
"b.	c #D7D7D7",
"c.	c #7D7D7D",
"d.	c #969696",
"e.	c #FEFEFE",
"f.	c #FAFAFA",
"g.	c #F6F6F6",
"h.	c #F2F2F2",
"i.	c #EFEFEF",
"j.	c #DFDFDF",
"k.	c #636363",
"l.	c #6B6B6B",
"m.	c #696969",
"n.	c #686868",
"o.	c #666666",
"p.	c #656565",
"q.	c #646464",
"r.	c #545454",
"                                ",
"  . + @ @ @ # # $ $ $ % & * =   ",
"- ; > , ' ' ' ' ) ) ) ) ! ! ; ~ ",
"{ $ ] ^ / ( _ _ _ _ _ : < [ } | ",
"1 2 3 4 5 6 7 8 8 8 8 9 0 a b c ",
"d e f g h i j k k k k k l 7 ) m ",
"n o p q r s t u v w s w x y ! c ",
"z A B C D E F G H I I J K L ! M ",
"z N O P Q R S T U V W X Y Z & c ",
"= `  ...+.@.#.$.%.&.+.O K *.=.c ",
"-.;.>.,.'.).*.!.*.).'.~.Q {.].c ",
"^.N %./.(._.:.<.:.*.[.~.}.:.@ c ",
"|.1._ 2.3.4.5.6.7.8.9.0.a.( b.c.",
"d.; ; ; ; e.f.g.h.i.) ! % j.@ k.",
"  k.8 0 l.m.m.n.o.p.p.k.k.q.r.  ",
"                                "};
