/* XPM */
static char * collapse_xpm[] = {
"10 24 51 1",
" 	c None",
".	c #101010",
"+	c #343332",
"@	c #262524",
"#	c #000000",
"$	c #504D4E",
"%	c #4F4D4E",
"&	c #4F4E4D",
"*	c #504E4D",
"=	c #4D4B4B",
"-	c #4A4948",
";	c #4A4949",
">	c #4B4949",
",	c #4B4948",
"'	c #474746",
")	c #484647",
"!	c #484646",
"~	c #454444",
"{	c #434141",
"]	c #434242",
"^	c #413F3E",
"/	c #403E3F",
"(	c #413F3F",
"_	c #3E3D3C",
":	c #3E3D3D",
"<	c #3E3C3D",
"[	c #3C3B3A",
"}	c #3C3A3A",
"|	c #393837",
"1	c #3A3738",
"2	c #373535",
"3	c #373635",
"4	c #373536",
"5	c #343333",
"6	c #353233",
"7	c #323131",
"8	c #323130",
"9	c #323030",
"0	c #2F2E2E",
"a	c #302E2E",
"b	c #2D2C2C",
"c	c #2D2B2C",
"d	c #2D2B2B",
"e	c #2B2929",
"f	c #2A292A",
"g	c #2B292A",
"h	c #2A2A29",
"i	c #2A2929",
"j	c #252424",
"k	c #262625",
"l	c #1D1C1C",
"..........",
"++++++++++",
"@@@@@@@@@@",
"##########",
"#$%$$%&%%*",
"#=========",
"#-;>;;;;,,",
"#')#!!!!!!",
"#~~##~~~~~",
"#{]###{{{{",
"#^/####(((",
"#_:#####<<",
"#[}######}",
"#|1#####||",
"#23####444",
"#56###5555",
"#78##99999",
"#00#aaaaaa",
"#bbcbbdcbd",
"#efggegehi",
"#&&&&&&&&&",
"jjjjjjjjjj",
"kkkkkkkkkk",
"llllllllll"};
