/* XPM */
static char * collapse_xpm[] = {
"10 24 2 1",
" 	c None",
".	c #DCDCCC",
"          ",
"          ",
"          ",
"          ",
"          ",
"          ",
"  .       ",
"  ..      ",
"  ...     ",
"  ....    ",
"  .....   ",
"  ......  ",
"  .....   ",
"  ....    ",
"  ...     ",
"  ..      ",
"  .       ",
"          ",
"          ",
"          ",
"          ",
"          ",
"          ",
"          "};
