/* XPM */
static char * desktop_xpm[] = {
"23 23 4 1",
" 	c None",
".	c #DDDDCC",
"+	c #DCDCCC",
"@	c #DCDCCD",
"                       ",
"                       ",
"                       ",
"   .+++++++++++++++.   ",
"  @+++++++++++++++++@  ",
"  +++++++++++++++++++  ",
"  +++++++++++++++++++  ",
"  +++++++++++++++++++  ",
"  +++++++++++++++++++  ",
"  +++++++++++++++++++  ",
"  +++++++++++++++++++  ",
"  +++++++++++++++++++  ",
"  +++++++++++++++++++  ",
"  +++++++++++++++++++  ",
"  +++++++++++++++++++  ",
"  +++             +++  ",
"  +++             +++  ",
"  +++++++++++++++++++  ",
"  @+++++++++++++++++@  ",
"   .+++++++++++++++.   ",
"                       ",
"                       ",
"                       "};
