/* XPM */
static char * desktop_xpm[] = {
"23 23 249 2",
"  	c None",
". 	c #627088",
"+ 	c #6E7E95",
"@ 	c #73849B",
"# 	c #71839B",
"$ 	c #6B7B93",
"% 	c #5C6A83",
"& 	c #61728D",
"* 	c #90A4BA",
"= 	c #B0C7DA",
"- 	c #C5DCEE",
"; 	c #D0E7F7",
"> 	c #CEE5F5",
", 	c #C1D8EA",
"' 	c #AAC0D3",
") 	c #869AB1",
"! 	c #576882",
"~ 	c #697D98",
"{ 	c #B7CEE1",
"] 	c #D0E8FA",
"^ 	c #D2EBFF",
"/ 	c #CFE8FF",
"( 	c #CCE7FF",
"_ 	c #CDE8FF",
": 	c #D1EAFF",
"< 	c #D5EDFF",
"[ 	c #CEE5F7",
"} 	c #AFC6D8",
"| 	c #596D87",
"1 	c #647892",
"2 	c #B9D1E7",
"3 	c #C8E4FF",
"4 	c #BFDFFE",
"5 	c #B7DAFC",
"6 	c #B2D7FC",
"7 	c #B0D6FB",
"8 	c #B5D8FC",
"9 	c #B5D9FC",
"0 	c #BBDCFD",
"a 	c #C5E2FE",
"b 	c #CFE9FE",
"c 	c #B5CBDD",
"d 	c #536781",
"e 	c #52637E",
"f 	c #A6C1DC",
"g 	c #BADCFC",
"h 	c #A7D0F9",
"i 	c #9CC8F6",
"j 	c #93C3F3",
"k 	c #8EBFF1",
"l 	c #AFD2F4",
"m 	c #D4E7FA",
"n 	c #A4CCF4",
"o 	c #98C7F5",
"p 	c #A3CDF8",
"q 	c #B1D6FB",
"r 	c #C5E2FD",
"s 	c #A2BACF",
"t 	c #495971",
"u 	c #748CA8",
"v 	c #ABCFF3",
"w 	c #9DCAF6",
"x 	c #8ABDEF",
"y 	c #87B9EB",
"z 	c #90BDEA",
"A 	c #7FB2E5",
"B 	c #B9D4EF",
"C 	c #ECF3FA",
"D 	c #9DC5EB",
"E 	c #8EBDEC",
"F 	c #99C5F1",
"G 	c #97C5F4",
"H 	c #AAD2FA",
"I 	c #B5D2EF",
"J 	c #6E839B",
"K 	c #45556B",
"L 	c #83A4C6",
"M 	c #9CC9F5",
"N 	c #82B7EC",
"O 	c #71A9E1",
"P 	c #8CB7E3",
"Q 	c #CEE0F2",
"R 	c #AFCCE8",
"S 	c #91B7DE",
"T 	c #D2E2F1",
"U 	c #94BBE1",
"V 	c #C7DCF2",
"W 	c #C3DBF3",
"X 	c #89BAEA",
"Y 	c #90C1F2",
"Z 	c #ADD3F8",
"` 	c #849FBA",
" .	c #404E63",
"..	c #4E5F76",
"+.	c #87AED6",
"@.	c #84B8EC",
"#.	c #6CA5DF",
"$.	c #5A95D1",
"%.	c #6E9FD1",
"&.	c #B7CEE5",
"*.	c #D3E1EF",
"=.	c #99B9D9",
"-.	c #B4CAE2",
";.	c #B5CDE5",
">.	c #D3E2F1",
",.	c #A9C8E6",
"'.	c #71A7DC",
").	c #7AB1E7",
"!.	c #97C5F3",
"~.	c #88ABCE",
"{.	c #48586D",
"].	c #51647C",
"^.	c #85B1DC",
"/.	c #76ADE5",
"(.	c #609BD7",
"_.	c #4986C3",
":.	c #417BB4",
"<.	c #5A88B7",
"[.	c #7096BC",
"}.	c #85A5C6",
"|.	c #BCCFE0",
"1.	c #7FA2C4",
"2.	c #6E98C0",
"3.	c #588BBE",
"4.	c #508BC5",
"5.	c #6CA6DF",
"6.	c #88BBEE",
"7.	c #84ACD5",
"8.	c #495B74",
"9.	c #324555",
"0.	c #5C8DBD",
"a.	c #3A72A9",
"b.	c #235B93",
"c.	c #1E568C",
"d.	c #507CA7",
"e.	c #B6C9DB",
"f.	c #CDDAE7",
"g.	c #89A7C6",
"h.	c #A6BED4",
"i.	c #D2DDE8",
"j.	c #8FAAC6",
"k.	c #2E6194",
"l.	c #1F578E",
"m.	c #3D73A9",
"n.	c #4979AA",
"o.	c #223444",
"p.	c #223344",
"q.	c #3C6D9E",
"r.	c #235A92",
"s.	c #1C548C",
"t.	c #225A92",
"u.	c #5C86B0",
"v.	c #BBCDDF",
"w.	c #95B1CD",
"x.	c #759ABE",
"y.	c #7A9DC1",
"z.	c #B3C7DB",
"A.	c #A2BAD2",
"B.	c #386A9D",
"C.	c #1D558D",
"D.	c #1E568F",
"E.	c #225383",
"F.	c #162533",
"G.	c #17222D",
"H.	c #36618D",
"I.	c #2C659E",
"J.	c #1F5890",
"K.	c #225C96",
"L.	c #30679E",
"M.	c #4D7DAE",
"N.	c #3F74A9",
"O.	c #8BABCB",
"P.	c #E2EAF2",
"Q.	c #6A94BC",
"R.	c #497AAC",
"S.	c #4878AA",
"T.	c #276098",
"U.	c #205992",
"V.	c #215A93",
"W.	c #1E4771",
"X.	c #131B24",
"Y.	c #294866",
"Z.	c #336CA4",
"`.	c #245E98",
" +	c #25609A",
".+	c #2A649E",
"++	c #2F6AA4",
"@+	c #306BA6",
"#+	c #608EBC",
"$+	c #99B7D4",
"%+	c #4C7FB2",
"&+	c #306AA5",
"*+	c #2C67A1",
"=+	c #27619B",
"-+	c #235D97",
";+	c #22578E",
">+	c #193450",
",+	c #16232F",
"'+	c #326190",
")+	c #2D67A2",
"!+	c #28639E",
"~+	c #2B67A3",
"{+	c #306CA8",
"]+	c #3470AB",
"^+	c #3974B0",
"/+	c #407AB3",
"(+	c #3671AD",
"_+	c #316DA9",
":+	c #2C68A4",
"<+	c #28649F",
"[+	c #245E97",
"}+	c #1D4873",
"|+	c #131E28",
"1+	c #17283A",
"2+	c #316394",
"3+	c #2E6AA5",
"4+	c #3874B0",
"5+	c #3E7BB8",
"6+	c #417EBC",
"7+	c #3E7CB9",
"8+	c #2A66A1",
"9+	c #22517F",
"0+	c #152332",
"a+	c #172839",
"b+	c #2A5987",
"c+	c #326AA3",
"d+	c #3F7BB8",
"e+	c #5491CD",
"f+	c #5E99D4",
"g+	c #548FCC",
"h+	c #3E7AB7",
"i+	c #2E669E",
"j+	c #234F7B",
"k+	c #192735",
"l+	c #15212D",
"m+	c #1F3C5A",
"n+	c #2C5680",
"o+	c #3E6FA0",
"p+	c #4B7FB4",
"q+	c #4C7FB3",
"r+	c #3C6E9F",
"s+	c #2A537D",
"t+	c #1E3955",
"u+	c #141F29",
"v+	c #19222B",
"w+	c #192837",
"x+	c #1C2E40",
"y+	c #192736",
"z+	c #141D25",
"                                              ",
"                                              ",
"                . + @ # $ %                   ",
"            & * = - ; > , ' ) !               ",
"          ~ { ] ^ / ( _ : < [ } |             ",
"        1 2 3 4 5 6 7 8 9 0 a b c d           ",
"      e f g h i j k l m n o p q r s t         ",
"      u v w x y z A B C D E F G H I J         ",
"    K L M N O P Q R S T U V W X Y Z `  .      ",
"    ..+.@.#.$.%.&.*.=.-.;.>.,.'.).!.~.{.      ",
"    ].^./.(._.:.<.[.}.|.1.2.3.4.5.6.7.8.      ",
"    9.0.a.b.c.d.e.f.g.h.h.i.j.k.l.m.n.o.      ",
"    p.q.r.s.t.u.v.w.x.f.y.z.A.B.C.D.E.F.      ",
"    G.H.I.J.K.L.M.N.O.P.Q.R.S.T.U.V.W.X.      ",
"      Y.Z.`. +.+++@+#+$+%+&+*+=+-+;+>+        ",
"      ,+'+)+!+~+{+]+^+/+(+_+:+<+[+}+|+        ",
"        1+2+3+_+4+5+6+6+7+4+_+8+9+0+          ",
"          a+b+c+d+e+f+f+g+h+i+j+k+            ",
"            l+m+n+o+p+q+r+s+t+u+              ",
"                v+w+x+x+y+z+                  ",
"                                              ",
"                                              ",
"                                              "};
