/* XPM */
static char * icewm_xpm[] = {
"49 23 99 2",
"  	c None",
". 	c #CDCDCD",
"+ 	c #515151",
"@ 	c #4D4D4D",
"# 	c #4B4B4B",
"$ 	c #4C4C4C",
"% 	c #D5D5D5",
"& 	c #DBDBDB",
"* 	c #D0D0D0",
"= 	c #DDDDDD",
"- 	c #505050",
"; 	c #4E4E4E",
"> 	c #686868",
", 	c #5D5D5D",
"' 	c #D7D7D7",
") 	c #929292",
"! 	c #767676",
"~ 	c #7B7B7B",
"{ 	c #DADADA",
"] 	c #C3C3C3",
"^ 	c #989898",
"/ 	c #9A9A9A",
"( 	c #B7B7B7",
"_ 	c #BEBEBE",
": 	c #D2D2D2",
"< 	c #8F8F8F",
"[ 	c #7A7A7A",
"} 	c #969696",
"| 	c #6B6B6B",
"1 	c #8C8C8C",
"2 	c #C7C7C7",
"3 	c #C0C0C0",
"4 	c #CECECE",
"5 	c #8E8E8E",
"6 	c #D1D1D1",
"7 	c #D6D6D6",
"8 	c #6E6E6E",
"9 	c #404040",
"0 	c #5B5B5B",
"a 	c #C4C4C4",
"b 	c #D3D3D3",
"c 	c #B9B9B9",
"d 	c #CBCBCB",
"e 	c #8D8D8D",
"f 	c #797979",
"g 	c #4A4A4A",
"h 	c #6C6C6C",
"i 	c #595959",
"j 	c #C1C1C1",
"k 	c #C5C5C5",
"l 	c #C9C9C9",
"m 	c #CACACA",
"n 	c #707070",
"o 	c #BDBDBD",
"p 	c #C2C2C2",
"q 	c #8B8B8B",
"r 	c #525252",
"s 	c #C6C6C6",
"t 	c #959595",
"u 	c #BABABA",
"v 	c #8A8A8A",
"w 	c #979797",
"x 	c #949494",
"y 	c #7F7F7F",
"z 	c #848484",
"A 	c #BFBFBF",
"B 	c #BCBCBC",
"C 	c #B4B4B4",
"D 	c #B5B5B5",
"E 	c #B8B8B8",
"F 	c #9C9C9C",
"G 	c #939393",
"H 	c #A7A7A7",
"I 	c #AFAFAF",
"J 	c #AEAEAE",
"K 	c #B0B0B0",
"L 	c #A9A9A9",
"M 	c #BBBBBB",
"N 	c #B6B6B6",
"O 	c #ABABAB",
"P 	c #B1B1B1",
"Q 	c #ACACAC",
"R 	c #B3B3B3",
"S 	c #A6A6A6",
"T 	c #A1A1A1",
"U 	c #CCCCCC",
"V 	c #AAAAAA",
"W 	c #DCDCDC",
"X 	c #D9D9D9",
"Y 	c #D8D8D8",
"Z 	c #E0E0E0",
"` 	c #E1E1E1",
" .	c #DFDFDF",
"..	c #D4D4D4",
"+.	c #999999",
"@.	c #919191",
"#.	c #9B9B9B",
"$.	c #A2A2A2",
"%.	c #A3A3A3",
"                                                                                                  ",
"                                                                                                  ",
"            . . . . . . . . . . . . . . .                 + @ # $ $                               ",
"          % & * * * * * * * * * * * * * % =             - ;       > ,                             ",
"          ' ) ! ! ! ! ! ! ! ! ! ! ! ! ! ~ {             $       ] ^ / ^ ( _                       ",
"          : < ! ! ! ! ! ! ! ! ! ! ! ! ! [ %           @     _ : % } | 1 2 % 3                     ",
"          4 5 ! ! ! ! ! ! ! ! ! ! ! ! ! [ 6           #     4 7 6 8 9 0 a 7 b c                   ",
"          d e ! ! ! ! ! ! ! ! ! ! ! ! ! f .           g   _ : : 4 h 9 i j : : k                   ",
"          2 1 ! ! ! ! ! ! ! ! ! ! ! ! ! f l           #   a 4 4 m n 9 , o 4 4 m                   ",
"          p q ! ! ! ! ! ! ! ! ! ! ! ! ! f k         r @   a d d s t f < u d d l                   ",
"          _ v ! ! ! ! ! ! ! ! ! ! ! ! ! f j       r ;     3 s s p w w w ( s s k                   ",
"          c x y y y y y y y y y y y y y z A               B p p A t x x C p p j                   ",
"          D a a a a a a a a a a a a a a a B               E _ _ _ F G } u _ _ o                   ",
"          H I J J J J J J K J I J J J J J L               C M M M E J N M M M c                   ",
"                        O _ P                             P ( ( ( ( ( ( ( ( ( D                   ",
"                      O Q R J O                           O R R R R R R R R R K                   ",
"                    S P P P P P L                         T I I I I I I I I I S                   ",
"                2 6 6 6 6 6 6 6 6 6 U                     x L O O O O O O O V ^                   ",
"                * W X Y = Z `  ...W X J                     } S H H H H H H +.                    ",
"              G w } w w w w w w } w w x                       @.#.$.%.%.F )                       ",
"                                                                    1 1                           ",
"                                                                                                  ",
"                                                                                                  "};
