/* XPM */
static char * icewm_xpm[] = {
"49 23 144 2",
"  	c None",
". 	c #8D919E",
"+ 	c #7B8090",
"@ 	c #D0D1D2",
"# 	c #777C89",
"$ 	c #B7B9BF",
"% 	c #D0D0D0",
"& 	c #ABACAF",
"* 	c #5E6475",
"= 	c #6E737F",
"- 	c #D8D8D9",
"; 	c #C5C5C5",
"> 	c #C4C4C4",
", 	c #95979D",
"' 	c #B0B2B8",
") 	c #C2C2C2",
"! 	c #5F6165",
"~ 	c #6C717E",
"{ 	c #D8D9DA",
"] 	c #B4B4B4",
"^ 	c #88898A",
"/ 	c #B8B8B8",
"( 	c #BABABB",
"_ 	c #686D77",
": 	c #B2B4B9",
"< 	c #C9C9C9",
"[ 	c #63666A",
"} 	c #3F4551",
"| 	c #656870",
"1 	c #AFAFB0",
"2 	c #A6A7AA",
"3 	c #535965",
"4 	c #464C5B",
"5 	c #676B75",
"6 	c #D5D5D6",
"7 	c #828387",
"8 	c #585B63",
"9 	c #A2A3A4",
"0 	c #C3C3C3",
"a 	c #8F9094",
"b 	c #464B58",
"c 	c #9A9CA0",
"d 	c #555A65",
"e 	c #7C8089",
"f 	c #888A91",
"g 	c #AEB0B5",
"h 	c #A6A7A9",
"i 	c #444954",
"j 	c #3A4050",
"k 	c #4F535D",
"l 	c #9A9B9D",
"m 	c #BFBFC0",
"n 	c #74777F",
"o 	c #3C4252",
"p 	c #70747E",
"q 	c #DBDCDC",
"r 	c #8A8C90",
"s 	c #696A69",
"t 	c #D6D6D6",
"u 	c #AEAEAE",
"v 	c #4A4C4B",
"w 	c #414241",
"x 	c #2F3030",
"y 	c #898989",
"z 	c #B3B3B3",
"A 	c #474948",
"B 	c #161817",
"C 	c #222423",
"D 	c #CBCBCB",
"E 	c #BABABA",
"F 	c #515252",
"G 	c #656565",
"H 	c #D5D5D5",
"I 	c #C7C7C7",
"J 	c #717171",
"K 	c #9A9A9A",
"L 	c #1B1B1B",
"M 	c #6A6A6A",
"N 	c #949494",
"O 	c #272727",
"P 	c #121212",
"Q 	c #545454",
"R 	c #7A7A7A",
"S 	c #B2B2B2",
"T 	c #A2A2A2",
"U 	c #2E2E2E",
"V 	c #646464",
"W 	c #C6C6C6",
"X 	c #B0B0B0",
"Y 	c #444444",
"Z 	c #8F8F8F",
"` 	c #1D1D1D",
" .	c #1A1A1A",
"..	c #696969",
"+.	c #6F6F6F",
"@.	c #222222",
"#.	c #989898",
"$.	c #515151",
"%.	c #191919",
"&.	c #494949",
"*.	c #ADADAD",
"=.	c #777777",
"-.	c #636363",
";.	c #BCBCBC",
">.	c #7E7E7E",
",.	c #3F3F3F",
"'.	c #818181",
").	c #BEBEBE",
"!.	c #767676",
"~.	c #737373",
"{.	c #323232",
"].	c #575757",
"^.	c #4B4B4B",
"/.	c #3A3A3A",
"(.	c #979797",
"_.	c #D1D1D1",
":.	c #919191",
"<.	c #3E3E3E",
"[.	c #202020",
"}.	c #6E6E6E",
"|.	c #ABABAB",
"1.	c #363636",
"2.	c #393939",
"3.	c #505050",
"4.	c #141414",
"5.	c #171717",
"6.	c #4C4C4C",
"7.	c #464646",
"8.	c #808080",
"9.	c #2C2C2C",
"0.	c #606060",
"a.	c #B6B6B6",
"b.	c #555555",
"c.	c #1C1C1C",
"d.	c #666666",
"e.	c #6B6B6B",
"f.	c #525252",
"g.	c #2D2D2D",
"h.	c #474747",
"i.	c #3C3C3C",
"j.	c #373737",
"k.	c #1E1E1E",
"l.	c #161616",
"m.	c #111216",
"                                                                                                  ",
"                                                                                                  ",
"                                                  .                                               ",
"                                                + @ #                                             ",
"                                                $ % & *                                           ",
"                                              = - ; > ,                                           ",
"                                              ' % > > ) !                                         ",
"                                            ~ { ] ^ / > ( _                                       ",
"                                            : < [ } | 1 > 2 3               4                     ",
"                                          5 6 7       8 9 0 a b           b c d                   ",
"                        e f               g h i       j k l m n o         p q r                   ",
"                      s t u             v ) w             x y z A B     C z D E F                 ",
"                    G H I ) J           K J                 L M N O P   Q ; R S T U               ",
"                  V t W E ) X         Y Z `                    ...+. .@.#.$.%.&.*.=.              ",
"                -.t ;.>.,.'.).!.      ~.{.                       .].$.^.^.      /.(.^.            ",
"              V _.:.<.    [.}.|.1.  2.3.4.                        5.6.7.          1.8.9.          ",
"            0.a.b.c.        L d.e.[.$.[.                                            <.-.          ",
"          f.8.g.               .6.h.U                                                 i.j.        ",
"        Y Q k.                  l.O                                                               ",
"        2.l.                                                                                      ",
"        m.                                                                                        ",
"                                                                                                  ",
"                                                                                                  "};
