/* XPM */
static char * windows_xpm[] = {
"23 23 2 1",
" 	c None",
".	c #DCDCCC",
"                       ",
"                       ",
"                       ",
"       ......          ",
"      ........         ",
"     ...    ...        ",
"    ..        ..       ",
"   ...        ...      ",
"   ..          ..      ",
"   ..          ..      ",
"   ..          ..      ",
"   ..          ..      ",
"   ...        ...      ",
"    ..        ..       ",
"     ...    ....       ",
"      ...........      ",
"       ......  ...     ",
"                ...    ",
"                 ..    ",
"                  ..   ",
"                   .   ",
"                       ",
"                       "};
