/* XPM */
static char * nomail_xpm[] = {
"16 16 9 1",
" 	c None",
".	c #000304",
"+	c #000000",
"@	c #8AC2E5",
"#	c #010E15",
"$	c #010E14",
"%	c #010C11",
"&	c #010B10",
"*	c #011119",
"                ",
"                ",
" .++++++.++++++ ",
"+@@@@@@@@@@@@@@.",
"++@@@@@@@@@@@@++",
"+@+@@@@@@@@@@+@+",
"+@@+@@@@@@@@+@@+",
"+@@@+@@@@@@+@@@+",
"+@@@++@@@@++@@@+",
"+@@+@@++++@@+@@+",
"+@+@@@@@@@@@@+@+",
"++@@@@@@@@@@@@++",
".@@@@@@@@@@@@@@.",
" #$$$%###&$&$&* ",
"                ",
"                "};
