/* XPM */
static char * unreadmail_xpm[] = {
"16 16 10 1",
" 	c None",
".	c #000304",
"+	c #000000",
"@	c #FFFFFF",
"#	c #00FF08",
"$	c #010E15",
"%	c #010E14",
"&	c #010C11",
"*	c #010B10",
"=	c #011119",
"                ",
"                ",
" .++++++.++++++ ",
"+@@@@@@@@@@@@@@.",
"++@@@@@@@@@@@@++",
"+@+@@@@@@@@@@+@+",
"+@@+@@@@@@@@+@@+",
"+@@@+@@@@@@+@@@+",
"+###++####++###+",
"+##+##++++##+##+",
"+#+##########+#+",
"++############++",
".##############.",
" $%%%&$$$*%*%*= ",
"                ",
"                "};
